<svg width="64" height="64" viewBox="0 0 64 64" xmlns="http://www.w3.org/2000/svg">
  <rect x="0" y="0" width="31" height="31" fill="#666"/>
  <circle cx="16" cy="16" r="10" fill="#222" stroke="#AAA" stroke-width="1"/>
  <circle cx="16" cy="11" r="1.5" fill="#AAA"/>
  <circle cx="21" cy="16" r="1.5" fill="#AAA"/>
  <circle cx="11" cy="16" r="1.5" fill="#AAA"/>

  <rect x="33" y="33" width="31" height="31" fill="#666"/>
  <circle cx="48" cy="48" r="10" fill="#222" stroke="#AAA" stroke-width="1"/>
  <circle cx="48" cy="43" r="1.5" fill="#AAA"/>
  <circle cx="53" cy="48" r="1.5" fill="#AAA"/>
  <circle cx="43" cy="48" r="1.5" fill="#AAA"/>

  <rect x="0" y="33" width="31" height="31" fill="#666"/>
  <g transform="scale(0.1) translate(23, 425)">
    <path fill="#222" stroke="#AAA" stroke-miterlimit="1.3" stroke-width="10" d="m213.603 85.9745c2.18864 0.11574 3.30742-0.97207 4.48805-2.32637l15.8292-18.1577c1.74487-1.91133 2.12376-2.05886 4.6278-2.78217l11.3313-3.27316c1.57911-0.4772 3.09692-2.57304 3.39177-4.67831 0 0 0.0436-28.0093 0.0595-34.5838 7e-3 -3.21054-2.22638-6.15661-5.78097-6.15661h-225.1c-3.55458 0-5.78872 2.94607-5.78096 6.15661 0.01588 6.57454 0.05956 34.5838 0.05956 34.5838 0.294845 2.10527 1.81266 4.20111 3.39178 4.67831l11.3313 3.27316c2.50404 0.72331 2.88293 0.87084 4.6278 2.78217l15.8292 18.1577c1.18063 1.3543 2.29941 2.44209 4.48805 2.32637h157.207z" />
    <rect x="54" y="37" width="160" height="20" fill="#AAA"/>
  </g>

  <rect x="33" y="0" width="31" height="31" fill="#666"/>
  <g transform="scale(0.1) translate(350, 110)">
    <path fill="#222" stroke="#AAA" stroke-miterlimit="1.3" stroke-width="10" d="m213.603 85.9745c2.18864 0.11574 3.30742-0.97207 4.48805-2.32637l15.8292-18.1577c1.74487-1.91133 2.12376-2.05886 4.6278-2.78217l11.3313-3.27316c1.57911-0.4772 3.09692-2.57304 3.39177-4.67831 0 0 0.0436-28.0093 0.0595-34.5838 7e-3 -3.21054-2.22638-6.15661-5.78097-6.15661h-225.1c-3.55458 0-5.78872 2.94607-5.78096 6.15661 0.01588 6.57454 0.05956 34.5838 0.05956 34.5838 0.294845 2.10527 1.81266 4.20111 3.39178 4.67831l11.3313 3.27316c2.50404 0.72331 2.88293 0.87084 4.6278 2.78217l15.8292 18.1577c1.18063 1.3543 2.29941 2.44209 4.48805 2.32637h157.207z" />
    <rect x="54" y="37" width="160" height="20" fill="#AAA"/>
  </g>

  <rect rx="1.5" ry="1.5" transform="rotate(45)" x="21" y="-1" width="48" height="2" fill="#F00"/>
  <rect rx="1.5" ry="1.5" transform="rotate(-43)" x="-21" y="44.5" width="47" height="2" fill="#00F"/>

</svg>
